<?xml version="1.0" standalone="no"?>
<!DOCTYPE svg PUBLIC "-//W3C//DTD SVG 20010904//EN"
 "http://www.w3.org/TR/2001/REC-SVG-20010904/DTD/svg10.dtd">
<svg version="1.0" xmlns="http://www.w3.org/2000/svg"
 width="140.000000pt" height="140.000000pt" viewBox="0 0 140.000000 140.000000"
 preserveAspectRatio="xMidYMid meet">

<g transform="translate(0.000000,140.000000) scale(0.100000,-0.100000)"
fill="#000000" stroke="none">
<path d="M0 1315 l0 -85 435 0 c424 0 437 1 464 21 33 24 73 18 96 -14 20 -29
19 -49 -6 -81 -23 -29 -69 -35 -89 -11 -11 13 -74 15 -456 15 l-444 0 0 -190
0 -190 60 0 60 0 0 125 0 126 310 -1 c265 -1 313 1 332 14 32 22 55 20 83 -9
33 -32 32 -68 -1 -94 -31 -25 -53 -26 -80 -6 -16 12 -68 14 -296 15 l-278 0 0
-85 0 -85 349 0 c298 0 350 2 361 15 20 24 66 18 89 -11 25 -32 26 -52 6 -81
-23 -32 -63 -38 -96 -14 -27 20 -40 21 -464 21 l-435 0 0 -90 0 -90 188 0
c149 1 191 4 206 15 45 34 116 3 116 -50 0 -53 -77 -87 -114 -50 -12 12 -49
15 -205 15 l-191 0 0 -90 0 -90 221 0 c206 0 223 1 246 20 34 27 59 25 88 -5
32 -31 32 -59 0 -90 -27 -28 -66 -32 -85 -10 -10 13 -50 15 -241 15 l-229 0 0
-105 0 -105 370 0 370 0 0 234 c0 218 -1 237 -20 269 -16 27 -18 40 -11 60 18
48 76 62 111 27 24 -24 26 -72 5 -90 -13 -10 -15 -52 -15 -256 l0 -244 80 0
80 0 0 161 c0 146 -2 163 -20 186 -25 33 -25 54 1 87 26 33 68 34 97 3 26 -27
28 -55 7 -83 -11 -15 -14 -55 -15 -186 l0 -168 75 0 75 0 0 239 c0 208 -2 243
-17 269 -36 62 24 130 86 98 39 -21 48 -61 22 -97 -20 -27 -21 -41 -21 -269
l0 -240 70 0 70 0 0 405 0 405 -84 0 c-61 0 -93 -5 -114 -17 -25 -14 -34 -15
-56 -5 -57 26 -57 98 0 124 22 10 31 9 56 -5 21 -12 53 -17 114 -17 l84 0 0
85 0 85 -102 0 c-75 -1 -108 -5 -122 -15 -27 -21 -62 -19 -86 5 -57 57 20 150
83 100 21 -17 40 -20 126 -20 l101 0 0 135 0 135 -700 0 -700 0 0 -85z"/>
</g>
</svg>
